<svg xmlns="http://www.w3.org/2000/svg" viewBox="0 0 100 100">
  <path fill="#F2B705" d="M95.2 55.7l-8.4-1.5c-.5-2.5-1.3-4.9-2.5-7.1l5.5-6.5c1.4-1.7 1.2-4.1-.4-5.6l-5.7-5.7c-1.5-1.5-3.9-1.8-5.6-.4l-6.5 5.5c-2.2-1.2-4.6-2-7.1-2.5l-1.5-8.4c-.4-2.2-2.3-3.7-4.5-3.7h-8c-2.2 0-4.1 1.5-4.5 3.7l-1.5 8.4c-2.5.5-4.9 1.3-7.1 2.5l-6.5-5.5c-1.7-1.4-4.1-1.2-5.6.4l-5.7 5.7c-1.5 1.5-1.8 3.9-.4 5.6l5.5 6.5c-1.2 2.2-2 4.6-2.5 7.1l-8.4 1.5c-2.2.4-3.7 2.3-3.7 4.5v8c0 2.2 1.5 4.1 3.7 4.5l8.4 1.5c.5 2.5 1.3 4.9 2.5 7.1l-5.5 6.5c-1.4 1.7-1.2 4.1.4 5.6l5.7 5.7c1.5 1.5 3.9 1.8 5.6.4l6.5-5.5c2.2 1.2 4.6 2 7.1 2.5l1.5 8.4c.4 2.2 2.3 3.7 4.5 3.7h8c2.2 0 4.1-1.5 4.5-3.7l1.5-8.4c2.5-.5 4.9-1.3 7.1-2.5l6.5 5.5c1.7 1.4 4.1 1.2 5.6-.4l5.7-5.7c1.5-1.5 1.8-3.9.4-5.6l-5.5-6.5c1.2-2.2 2-4.6 2.5-7.1l8.4-1.5c2.2-.4 3.7-2.3 3.7-4.5v-8c0-2.2-1.5-4.1-3.7-4.5zM50 71c-11.6 0-21-9.4-21-21s9.4-21 21-21 21 9.4 21 21-9.4 21-21 21z"/>
  <circle cx="50" cy="50" r="14" fill="#0F2A44"/>
</svg>
